<svg width="1280" height="1280" viewBox="0 0 1280 1280" fill="none" xmlns="http://www.w3.org/2000/svg">
<path d="M894.717 213.333L1145.55 355.556L894.717 497.778L643.889 355.556L894.717 213.333Z" fill="#F39100"/>
<path d="M894.717 497.778L1145.55 640L894.717 782.222L643.889 640L894.717 497.778Z" fill="#C00216"/>
<path d="M894.717 782.222L1145.55 924.445L894.717 1066.67L643.889 924.445L894.717 782.222Z" fill="#FBB900"/>
<path d="M393.051 213.333L643.879 355.556L393.051 497.778L142.222 355.556L393.051 213.333Z" fill="#FBB900"/>
<path d="M643.884 71.1111L894.712 213.333L643.884 355.556L393.056 213.333L643.884 71.1111Z" fill="#FFCF00"/>
<path d="M393.051 497.778L643.879 640L393.051 782.222L142.222 640L393.051 497.778Z" fill="#9B0332"/>
<path d="M643.884 640L393.056 497.778L643.884 355.556V640Z" fill="#CB060B"/>
<path d="M1145.55 924.445L894.722 782.222L1145.55 640V924.445Z" fill="#FFCF00"/>
<path d="M1145.55 640L894.722 497.778L1145.55 355.556V640Z" fill="#E7410E"/>
<path d="M1145.55 355.556L894.722 213.333L1145.55 71.1111V355.556Z" fill="#FBB900"/>
<path d="M142.222 924.445L393.051 782.222L142.222 640L142.222 924.445Z" fill="#E7410E"/>
<path d="M142.222 640L393.051 497.778L142.222 355.556L142.222 640Z" fill="#E6262F"/>
<path d="M142.222 355.556L393.051 213.333L142.222 71.1111L142.222 355.556Z" fill="#FFDE0C"/>
<path d="M643.889 640L894.717 497.778L643.889 355.556V640Z" fill="#A71321"/>
<path d="M643.884 924.445L393.056 782.222L643.884 640V924.445Z" fill="#7E0C3E"/>
<path d="M643.889 924.445L894.717 782.222L643.889 640V924.445Z" fill="#5F0021"/>
<path d="M393.051 782.222L643.879 924.445L393.051 1066.67L142.222 924.445L393.051 782.222Z" fill="#F39100"/>
<path d="M643.884 924.445L894.712 1066.67L643.884 1208.89L393.056 1066.67L643.884 924.445Z" fill="#FFCF00"/>
</svg>
